<?xml version="1.0" standalone="no"?>
<!DOCTYPE svg PUBLIC "-//W3C//DTD SVG 20010904//EN"
 "http://www.w3.org/TR/2001/REC-SVG-20010904/DTD/svg10.dtd">
<svg version="1.0" xmlns="http://www.w3.org/2000/svg"
 width="1024.000000pt" height="724.000000pt" viewBox="0 0 1024.000000 724.000000"
 preserveAspectRatio="xMidYMid meet">

<g transform="translate(0.000000,724.000000) scale(0.100000,-0.100000)"
fill="#000000" stroke="none">
<path d="M3954 4627 c-9 -25 1 -222 11 -220 6 2 11 28 13 58 l3 55 45 0 c59 0
55 24 -4 28 -39 3 -42 5 -42 33 0 28 2 29 45 29 33 0 45 4 45 15 0 20 -108 22
-116 2z"/>
<path d="M4196 4528 c-49 -121 -51 -128 -36 -128 6 0 17 18 26 40 15 38 18 40
60 40 42 0 45 -2 60 -40 14 -36 34 -50 36 -27 2 13 -86 227 -93 227 -3 0 -27
-51 -53 -112z m70 17 c19 -46 19 -46 -16 -43 -16 1 -30 8 -30 15 0 14 21 63
27 63 2 0 11 -16 19 -35z"/>
<path d="M4498 4624 c-75 -40 -74 -169 1 -208 53 -28 141 -16 141 19 0 12 -6
12 -36 -1 -69 -29 -134 13 -134 86 0 73 70 118 136 87 29 -14 34 -15 34 -2 0
34 -91 47 -142 19z"/>
<path d="M4770 4540 c0 -120 12 -140 83 -140 69 0 82 21 82 138 0 67 -4 96
-12 99 -10 4 -13 -19 -13 -91 0 -91 -1 -96 -25 -112 -33 -21 -73 -11 -85 22
-6 14 -10 61 -10 105 0 46 -4 79 -10 79 -6 0 -10 -40 -10 -100z"/>
<path d="M5080 4520 l0 -120 50 0 c38 0 50 4 50 15 0 11 -11 15 -40 15 l-40 0
0 105 c0 63 -4 105 -10 105 -6 0 -10 -47 -10 -120z"/>
<path d="M5300 4521 l0 -121 43 0 c52 0 107 27 125 60 7 15 11 45 9 73 -6 70
-36 97 -116 104 l-61 6 0 -122z m129 63 c13 -16 21 -41 21 -64 0 -55 -31 -90
-81 -90 l-39 0 0 90 0 90 39 0 c31 0 44 -6 60 -26z"/>
<path d="M5661 4619 c-5 -13 -25 -62 -45 -107 -20 -46 -36 -90 -36 -98 0 -24
19 -6 35 32 13 31 17 34 58 34 42 0 45 -2 60 -40 13 -34 37 -55 37 -32 0 11
-82 216 -91 226 -5 5 -12 -1 -18 -15z m39 -103 c0 -6 -14 -12 -30 -13 -35 -3
-35 -5 -14 48 l17 41 13 -32 c8 -18 14 -37 14 -44z"/>
<path d="M5882 4523 l3 -118 32 -3 c90 -9 143 35 143 118 0 83 -42 120 -137
120 l-44 0 3 -117z m118 77 c29 -15 44 -73 30 -115 -14 -41 -35 -55 -84 -55
l-36 0 0 90 0 90 36 0 c19 0 44 -4 54 -10z"/>
<path d="M6194 4627 c-2 -7 -3 -60 -2 -118 l3 -104 58 -3 c46 -2 57 0 57 13 0
11 -11 15 -45 15 l-45 0 0 45 0 45 45 0 c33 0 45 4 45 15 0 11 -12 15 -45 15
-43 0 -45 1 -45 30 0 29 2 30 45 30 33 0 45 4 45 15 0 20 -108 22 -116 2z"/>
<path d="M2576 4064 c-14 -13 -16 -58 -16 -339 0 -370 -7 -345 92 -345 90 0
87 -9 90 260 l3 235 80 -225 c49 -140 88 -234 102 -247 29 -30 119 -33 149 -5
10 10 55 119 99 242 l80 223 3 -223 c3 -268 1 -262 101 -258 58 3 67 6 78 28
9 18 13 104 13 328 0 370 12 342 -152 342 -79 -1 -118 -5 -131 -14 -15 -12
-100 -236 -144 -380 -8 -27 -18 -45 -23 -40 -5 5 -38 97 -75 204 -41 119 -75
202 -87 213 -28 24 -238 25 -262 1z"/>
<path d="M3586 4064 c-14 -13 -16 -49 -16 -247 1 -250 5 -278 54 -342 15 -19
51 -47 79 -62 47 -25 64 -28 182 -31 208 -6 298 27 352 130 l28 53 3 238 c4
283 6 277 -93 277 -97 0 -95 4 -95 -256 0 -201 -2 -222 -20 -252 -26 -42 -54
-52 -145 -52 -150 0 -155 11 -155 299 0 208 -1 222 -20 241 -26 26 -130 29
-154 4z"/>
<path d="M4406 4058 c-24 -34 -24 -639 0 -662 13 -14 56 -16 313 -16 218 0
300 3 309 12 16 16 16 100 0 116 -9 9 -74 12 -230 12 l-218 0 0 263 c0 308 4
297 -98 297 -52 0 -63 -3 -76 -22z"/>
<path d="M4906 4064 c-20 -20 -21 -97 -2 -113 9 -7 59 -13 128 -14 l113 -2 5
-268 c4 -223 7 -269 20 -277 8 -5 42 -10 76 -10 96 0 93 -9 96 296 l3 259 115
2 c129 2 140 8 140 73 0 71 3 70 -358 70 -278 0 -323 -2 -336 -16z"/>
<path d="M5686 4058 c-14 -19 -16 -68 -16 -334 0 -361 -5 -344 97 -344 97 0
93 -16 93 352 0 366 5 348 -98 348 -52 0 -63 -3 -76 -22z"/>
<path d="M5942 4068 c-7 -7 -12 -15 -12 -19 0 -5 34 -81 76 -171 42 -90 83
-179 92 -198 78 -174 133 -280 150 -289 33 -18 127 -14 150 7 24 20 302 618
302 648 0 28 -17 34 -90 34 -47 0 -64 -5 -84 -22 -14 -13 -61 -108 -111 -221
-48 -108 -91 -199 -94 -202 -4 -2 -49 91 -101 206 -53 120 -102 216 -114 225
-25 17 -147 19 -164 2z"/>
<path d="M6796 4064 c-14 -13 -16 -58 -16 -339 0 -372 -8 -345 99 -345 94 0
91 -12 91 352 0 295 -1 309 -20 328 -26 26 -130 29 -154 4z"/>
<path d="M7060 4065 c-15 -18 -19 -11 117 -183 l114 -143 -68 -85 c-147 -187
-184 -237 -181 -253 3 -12 18 -17 72 -19 38 -2 82 2 96 8 15 6 64 58 109 116
l82 104 28 -33 c15 -17 48 -60 74 -94 74 -97 87 -104 176 -101 67 3 76 5 79
23 2 13 -39 73 -118 173 -66 84 -120 157 -120 162 0 5 13 24 28 42 92 108 203
260 200 276 -3 13 -16 18 -63 20 -98 5 -124 -8 -191 -94 -32 -42 -66 -85 -75
-96 -16 -20 -18 -18 -94 76 -42 54 -88 101 -102 107 -39 15 -149 11 -163 -6z"/>
<path d="M4715 3169 c-220 -3 -794 -12 -1275 -19 -864 -12 -1291 -25 -900 -29
96 0 607 -8 1135 -17 1201 -20 1709 -20 2935 0 536 9 1051 16 1144 16 93 0
167 2 164 5 -6 6 -750 20 -1858 35 -437 6 -829 11 -870 13 -41 1 -255 0 -475
-4z"/>
<path d="M5667 2862 c-23 -26 -22 -27 23 -28 43 -2 48 10 14 33 -18 11 -23 11
-37 -5z"/>
<path d="M3454 2806 c-3 -7 -3 -55 -2 -107 l3 -94 54 0 c35 0 56 5 59 13 2 8
-10 12 -43 12 l-46 0 3 38 c3 36 4 37 41 37 49 0 49 23 0 27 -33 3 -38 6 -38
28 0 22 5 25 43 28 28 2 42 7 39 15 -5 16 -107 19 -113 3z"/>
<path d="M3620 2711 c0 -86 3 -112 13 -109 7 3 14 32 17 78 l5 74 69 -77 c38
-42 73 -77 78 -77 14 0 5 213 -9 218 -10 3 -13 -16 -13 -74 l0 -79 -80 80 -80
80 0 -114z"/>
<path d="M3880 2800 c-34 -34 -20 -69 41 -100 43 -22 48 -44 17 -64 -13 -8
-23 -8 -35 2 -48 34 -69 25 -33 -13 30 -32 64 -32 95 0 40 39 28 73 -35 105
-44 22 -48 31 -24 51 13 10 19 10 36 0 30 -19 46 2 17 23 -31 21 -55 20 -79
-4z"/>
<path d="M4034 2807 c-10 -28 1 -200 14 -205 9 -3 12 23 12 107 0 70 -4 111
-10 111 -6 0 -13 -6 -16 -13z"/>
<path d="M4120 2712 c0 -87 3 -113 13 -110 7 3 14 32 17 78 l5 74 69 -77 c38
-42 73 -77 78 -77 5 0 7 47 6 108 -3 122 -21 147 -26 35 -2 -40 -5 -73 -8 -73
-3 0 -38 35 -79 78 l-74 77 -1 -113z"/>
<path d="M4403 2800 c-45 -27 -63 -87 -40 -135 45 -95 187 -77 203 26 8 47 -9
85 -48 109 -41 25 -74 25 -115 0z m112 -35 c16 -15 25 -36 25 -55 0 -71 -86
-105 -137 -54 -21 21 -24 32 -19 62 11 68 84 95 131 47z"/>
<path d="M4780 2794 c-6 -16 -27 -63 -46 -105 -39 -87 -39 -89 -20 -89 7 0 19
14 26 30 11 27 17 30 55 30 39 0 44 -3 54 -30 5 -17 17 -30 27 -30 9 0 14 6
11 13 -36 91 -81 194 -88 201 -5 5 -13 -3 -19 -20z m35 -81 c5 -20 3 -23 -19
-23 -30 0 -29 0 -16 36 11 29 23 24 35 -13z"/>
<path d="M5030 2711 l0 -111 30 0 c87 0 143 66 121 141 -13 44 -42 65 -104 74
l-47 7 0 -111z m101 50 c16 -16 29 -36 29 -45 0 -28 -22 -64 -47 -75 -49 -22
-53 -17 -53 69 0 74 1 80 21 80 11 0 34 -13 50 -29z"/>
<path d="M5235 2807 c-11 -28 0 -200 13 -205 15 -5 18 203 2 213 -6 3 -13 0
-15 -8z"/>
<path d="M5337 2802 c-10 -10 -17 -31 -17 -45 0 -21 9 -31 40 -47 46 -23 58
-43 40 -65 -16 -19 -49 -19 -56 0 -8 19 -34 20 -34 2 0 -21 34 -47 62 -47 32
0 71 41 66 71 -2 13 -18 33 -38 46 -58 38 -63 43 -49 59 13 16 45 19 54 4 4
-6 11 -8 16 -4 16 9 -21 44 -46 44 -12 0 -29 -8 -38 -18z"/>
<path d="M5470 2805 c0 -9 10 -15 25 -15 25 0 25 0 25 -96 0 -72 3 -95 13 -92
8 3 13 34 15 96 2 84 5 92 22 92 11 0 20 6 20 13 0 10 -18 14 -60 15 -47 1
-60 -1 -60 -13z"/>
<path d="M5642 2723 c-23 -54 -42 -104 -42 -110 0 -24 21 -13 31 17 10 27 15
30 55 30 38 0 46 -4 54 -24 9 -26 28 -42 37 -32 7 6 -79 216 -88 216 -3 0 -25
-44 -47 -97z m68 -20 c0 -7 -11 -13 -25 -13 -29 0 -29 0 -13 35 11 25 13 26
25 9 7 -10 13 -24 13 -31z"/>
<path d="M5822 2716 c2 -77 7 -111 16 -114 9 -3 12 17 12 75 l1 78 74 -77 c40
-43 76 -78 80 -78 3 0 4 48 3 108 -3 123 -21 146 -26 33 l-3 -75 -80 80 -80
79 3 -109z"/>
<path d="M6110 2802 c-76 -37 -74 -151 3 -188 40 -19 104 -12 114 12 8 22 0
25 -33 12 -43 -16 -81 -3 -99 33 -38 73 34 147 107 108 29 -16 37 0 9 22 -29
24 -56 24 -101 1z"/>
<path d="M6287 2814 c-4 -4 -7 -54 -7 -111 0 -79 3 -104 13 -101 8 3 13 35 15
103 3 91 -4 125 -21 109z"/>
<path d="M6392 2723 c-23 -54 -42 -104 -42 -110 0 -24 22 -13 33 17 10 27 16
30 54 30 37 0 44 -4 58 -30 14 -27 35 -41 35 -22 0 12 -85 212 -90 212 -3 0
-25 -44 -48 -97z m65 -3 c11 -29 10 -30 -17 -30 -28 0 -29 1 -19 30 6 17 14
30 18 30 4 0 12 -13 18 -30z"/>
</g>
</svg>
